Jump_normalized_pl14_filtered_grf
version=1
nRows=20
nColumns=37
inDegrees=yes
endheader
time		1_ground_force_vx		1_ground_force_vy		1_ground_force_vz		1_ground_force_px		1_ground_force_py		1_ground_force_pz		1_ground_torque_x		1_ground_torque_y		1_ground_torque_z		2_ground_force_vx		2_ground_force_vy		2_ground_force_vz		2_ground_force_px		2_ground_force_py		2_ground_force_pz		2_ground_torque_x		2_ground_torque_y		2_ground_torque_z		3_ground_force_vx		3_ground_force_vy		3_ground_force_vz		3_ground_force_px		3_ground_force_py		3_ground_force_pz		3_ground_torque_x		3_ground_torque_y		3_ground_torque_z		4_ground_force_vx		4_ground_force_vy		4_ground_force_vz		4_ground_force_px		4_ground_force_py		4_ground_force_pz		4_ground_torque_x		4_ground_torque_y		4_ground_torque_z		
0.762000		-0.000000		0.000000		0.000000		0.131163		0.000000		0.255524		0.000000		0.000000		-0.000000		-0.000000		0.000000		0.000000		-0.134203		0.000000		0.291502		0.000000		-0.000000		0.000000		8.280011		290.481606		351.079710		0.374357		1.309221		1.917514		-0.360852		-12.659497		-15.300426		-25.825728		467.275544		453.472200		-0.265808		1.308740		1.929176		-1.308008		23.666330		22.967226		
0.766242		0.000000		-0.000000		0.000000		0.131163		0.000000		0.255524		-0.000000		0.000000		0.000000		-0.000000		0.000000		0.000000		-0.134203		0.000000		0.291502		0.000000		-0.000000		0.000000		8.925162		277.004016		343.369299		0.374294		1.309266		1.917744		-0.392022		-12.166881		-15.081860		-29.070060		459.238693		462.116020		-0.265787		1.308773		1.929286		-1.484647		23.453829		23.600805		
0.770485		0.000000		-0.000000		-0.000000		0.131163		0.000000		0.255524		-0.000000		-0.000000		0.000000		-0.000000		-0.000000		-0.000000		-0.134203		0.000000		0.291502		-0.000000		0.000000		-0.000000		9.372144		263.286524		333.725185		0.374206		1.309268		1.917966		-0.414480		-11.643762		-14.758890		-32.475038		449.290682		469.255841		-0.265784		1.308833		1.929373		-1.674988		23.173369		24.203130		
0.774727		0.000000		-0.000000		-0.000000		0.131163		0.000000		0.255524		-0.000000		-0.000000		0.000000		-0.000000		-0.000000		-0.000000		-0.134203		0.000000		0.291502		-0.000000		0.000000		-0.000000		9.916010		249.873442		322.108168		0.374111		1.309221		1.918162		-0.441369		-11.122015		-14.337229		-36.001988		437.847104		474.817090		-0.265802		1.308911		1.929442		-1.877480		22.833331		24.761318		
0.778970		0.000000		-0.000000		-0.000000		0.131163		0.000000		0.255524		-0.000000		-0.000000		0.000000		0.000000		-0.000000		-0.000000		-0.134203		0.000000		0.291502		-0.000000		0.000000		-0.000000		10.807371		237.307357		308.535118		0.374037		1.309137		1.918309		-0.484329		-10.634836		-13.826881		-39.449906		425.608357		478.755663		-0.265833		1.308989		1.929503		-2.081412		22.455452		25.259557		
0.783212		-0.000000		0.000000		0.000000		0.131163		0.000000		0.255524		0.000000		0.000000		-0.000000		0.000000		0.000000		-0.000000		-0.134203		0.000000		0.291502		-0.000000		0.000000		0.000000		12.081903		225.681041		292.990628		0.374000		1.309047		1.918413		-0.545742		-10.194019		-13.234393		-42.620080		413.170682		481.074796		-0.265864		1.309056		1.929554		-2.275686		22.061028		25.686767		
0.787455		-0.000000		0.000000		0.000000		0.131163		0.000000		0.255524		0.000000		0.000000		-0.000000		0.000000		0.000000		0.000000		-0.134203		0.000000		0.291502		0.000000		-0.000000		0.000000		13.577196		214.280984		275.422274		0.373994		1.308984		1.918496		-0.619130		-9.771347		-12.559427		-45.427517		400.808733		481.878303		-0.265886		1.309110		1.929588		-2.455036		21.660855		26.042098		
0.791697		-0.000000		0.000000		0.000000		0.131163		0.000000		0.255524		0.000000		0.000000		-0.000000		0.000000		0.000000		0.000000		-0.134203		0.000000		0.291502		0.000000		-0.000000		0.000000		14.979452		201.571955		255.843786		0.373992		1.308976		1.918596		-0.690853		-9.296451		-11.799450		-47.915595		388.481369		481.374476		-0.265893		1.309160		1.929589		-2.621068		21.250555		26.331988		
0.795939		-0.000000		0.000000		0.000000		0.131163		0.000000		0.255524		0.000000		0.000000		-0.000000		-0.000000		0.000000		0.000000		-0.134203		0.000000		0.291502		0.000000		-0.000000		0.000000		15.987455		185.956314		234.489962		0.373962		1.309019		1.918728		-0.747027		-8.688935		-10.956702		-50.200610		376.020260		479.915603		-0.265892		1.309215		1.929557		-2.779059		20.816102		26.567657		
0.800182		0.000000		-0.000000		-0.000000		0.131163		0.000000		0.255524		-0.000000		-0.000000		0.000000		-0.000000		-0.000000		0.000000		-0.134203		0.000000		0.291502		-0.000000		0.000000		-0.000000		16.432101		166.881831		211.921115		0.373901		1.309095		1.918878		-0.778493		-7.906206		-10.039996		-52.351369		363.373821		477.862956		-0.265888		1.309280		1.929490		-2.931494		20.347609		26.758612		
0.804424		0.000000		-0.000000		-0.000000		0.131163		0.000000		0.255524		-0.000000		-0.000000		0.000000		-0.000000		-0.000000		-0.000000		-0.134203		0.000000		0.291502		-0.000000		0.000000		-0.000000		16.424919		145.639543		189.031428		0.373833		1.309178		1.919001		-0.787666		-6.984205		-9.065085		-54.375921		350.589969		475.512099		-0.265883		1.309351		1.929388		-3.077714		19.843607		26.914292		
0.808667		0.000000		-0.000000		-0.000000		0.131163		0.000000		0.255524		-0.000000		-0.000000		0.000000		0.000000		-0.000000		-0.000000		-0.134203		0.000000		0.291502		-0.000000		0.000000		-0.000000		16.310551		124.794663		166.769998		0.373792		1.309242		1.919048		-0.787265		-6.023485		-8.049517		-56.202033		337.718930		472.998411		-0.265880		1.309416		1.929252		-3.213318		19.308838		27.043372		
0.812909		0.000000		-0.000000		-0.000000		0.131163		0.000000		0.255524		-0.000000		-0.000000		0.000000		0.000000		-0.000000		-0.000000		-0.134203		0.000000		0.291502		-0.000000		0.000000		-0.000000		16.484451		106.465209		145.538027		0.373788		1.309275		1.919000		-0.792777		-5.120191		-6.999303		-57.728200		324.732863		470.309879		-0.265879		1.309469		1.929084		-3.332782		18.747553		27.152058		
0.817152		-0.000000		0.000000		0.000000		0.131163		0.000000		0.255524		0.000000		0.000000		-0.000000		0.000000		0.000000		-0.000000		-0.134203		0.000000		0.291502		0.000000		-0.000000		0.000000		17.157540		90.766214		124.604257		0.373806		1.309274		1.918868		-0.811388		-4.292442		-5.892686		-58.869566		311.606042		467.318731		-0.265886		1.309507		1.928885		-3.431018		18.160899		27.236110		
0.821394		-0.000000		0.000000		0.000000		0.131163		0.000000		0.255524		0.000000		0.000000		-0.000000		0.000000		0.000000		0.000000		-0.134203		0.000000		0.291502		0.000000		-0.000000		0.000000		18.283027		75.793446		102.422873		0.373811		1.309254		1.918691		-0.837867		-3.473518		-4.693921		-59.563129		298.438212		463.819138		-0.265906		1.309536		1.928659		-3.502928		17.551233		27.277351		
0.825636		-0.000000		0.000000		0.000000		0.131163		0.000000		0.255524		0.000000		0.000000		-0.000000		-0.000000		0.000000		0.000000		-0.134203		0.000000		0.291502		0.000000		-0.000000		0.000000		19.638899		59.471689		77.977300		0.373784		1.309229		1.918510		-0.855711		-2.591482		-3.397887		-59.725185		285.471930		459.552036		-0.265939		1.309566		1.928411		-3.541411		16.927073		27.249182		
0.829879		-0.000000		0.000000		0.000000		0.131163		0.000000		0.255524		0.000000		0.000000		-0.000000		-0.000000		0.000000		0.000000		-0.134203		0.000000		0.291502		0.000000		-0.000000		0.000000		20.936367		41.574266		52.253247		0.373722		1.309208		1.918340		-0.832268		-1.652940		-2.077558		-59.217284		272.989962		454.251645		-0.265986		1.309604		1.928141		-3.536328		16.302362		27.126927		
0.834121		0.000000		-0.000000		-0.000000		0.131163		0.000000		0.255524		-0.000000		-0.000000		0.000000		-0.000000		-0.000000		-0.000000		-0.134203		0.000000		0.291502		-0.000000		0.000000		-0.000000		21.916878		24.207323		28.398406		0.373649		1.309191		1.918168		-0.687815		-0.760253		-0.891968		-57.891941		261.168611		447.717763		-0.266037		1.309653		1.927846		-3.477734		15.689139		26.895686		
0.838364		0.000000		-0.000000		-0.000000		0.131163		0.000000		0.255524		-0.000000		-0.000000		0.000000		-0.000000		-0.000000		-0.000000		-0.134203		0.000000		0.291502		-0.000000		0.000000		-0.000000		22.422050		10.419355		10.139768		0.373610		1.309178		1.917970		-0.314221		-0.146604		-0.142862		-55.699981		249.993598		439.896097		-0.266086		1.309704		1.927529		-3.362106		15.089865		26.552578		
0.842606		0.000000		-0.000000		-0.000000		0.131163		0.000000		0.255524		-0.000000		-0.000000		0.000000		0.000000		-0.000000		-0.000000		-0.134203		0.000000		0.291502		-0.000000		0.000000		-0.000000		22.459383		2.160571		-0.456710		0.373647		1.309189		1.917734		-0.119839		-0.011522		0.002445		-52.705233		239.314647		430.883500		-0.266122		1.309746		1.927190		-3.192849		14.497527		26.102649		
